<?xml version="1.0" encoding="UTF-8"?>
<svg id="Calque_1" xmlns="http://www.w3.org/2000/svg" viewBox="0 0 27.91 12">
  <defs>
    <style>
      .cls-1 {
        fill: #000dff;
      }
    </style>
  </defs>
  <path class="cls-1" d="M7.58,0c-1.23,0-2.32.15-3.27.43C2.26,1.03.89,2.27.31,4.01c-.21.62-.31,1.31-.31,2.05,0,3.76,2.73,5.93,7.58,5.93s7.56-2.17,7.56-5.93S12.41,0,7.58,0ZM9.33,10.41c-1.2,0-1.76-.81-1.76-2.37s.56-2.44,1.76-2.44,1.74.85,1.74,2.44-.56,2.37-1.74,2.37Z"/>
  <path class="cls-1" d="M27.6,4.01c-.61-1.84-2.09-3.12-4.34-3.68-.86-.22-1.83-.33-2.91-.33-4.85,0-7.58,2.27-7.58,6.07s2.73,5.93,7.58,5.93,7.56-2.17,7.56-5.93c0-.75-.11-1.43-.31-2.05ZM22.11,10.41c-1.2,0-1.76-.81-1.76-2.37s.56-2.44,1.76-2.44,1.74.85,1.74,2.44-.56,2.37-1.74,2.37Z"/>
  <ellipse class="cls-1" cx="9.96" cy="8.67" rx=".51" ry="1.04"/>
  <ellipse class="cls-1" cx="22.86" cy="8.67" rx=".51" ry="1.04"/>
</svg>