<svg id="Calque_1" data-name="Calque 1" xmlns="http://www.w3.org/2000/svg" viewBox="0 0 747.87 179.65"><defs><style>.cls-1{fill:#0019ff;}</style></defs><path class="cls-1" d="M131.26,94.58c0,27-15.59,45.42-40,45.42-13.62,0-28-7.12-36.48-22v18.31H9.41V15.27H54.82V71.12c8-18.31,21.95-24.67,36.33-24.67C115.07,46.45,131.26,65.22,131.26,94.58Zm-73-1.36v1.21C58.3,107,62.54,114,71,114s12.56-7,12.56-19.68S79.49,74.6,71,74.6C63.45,74.6,58.3,81.27,58.3,93.22Z"/><path class="cls-1" d="M186.36,50.09v86.27H141V50.09Zm0-9.74H141V15.1H186.4Z"/><path class="cls-1" d="M237.52,46.6c15.74,0,28.61,6.81,35.57,20.74V50.09H318.5v72.65c-.15,34.66-30.27,51.46-74.62,51.46-16.2,0-28.46-2.27-38.75-6.81l-2.42-31.48A87.76,87.76,0,0,0,238,143.63c18.32,0,35.12-6.06,35.12-25.13v-.45c-8,9.38-18.16,15.13-34.06,15.13-25.88,0-43-14.38-43-40.86C196.05,66.74,211,46.6,237.52,46.6Zm19.53,62.21c7.87,0,12.71-5.6,12.71-17.55V90c0-10.59-4.24-17.55-12.71-17.55s-12.57,7-12.57,18.46C244.48,103.06,248.87,109,257.05,108.81Z"/><path class="cls-1" d="M438.89,49.63c-15.47,8.21-19.46,20-21.05,28H386.47v58.73H341.06V77.64h-16.2v-28h16.2V46.91c0-21.5,16.35-39.21,54.49-39.21,12.87,0,21.8,1.37,30.12,3.79l2.27,30.42A58.84,58.84,0,0,0,406.15,38c-12.72,0-19.68,3.48-19.68,10v1.66Z"/><path class="cls-1" d="M485.16,46.3a90,90,0,0,0-25.53,3.33c-16,4.75-26.72,14.38-31.21,28a50.68,50.68,0,0,0-2.44,16c0,29.37,21.34,46.32,59.18,46.32s59-17,59-46.32C544.2,64,522.85,46.3,485.16,46.3Zm13.7,81.29c-9.38,0-13.77-6.36-13.77-18.47,0-12.41,4.39-19.07,13.77-19.07,9.23,0,13.62,6.66,13.62,19.07C512.48,121.23,508.09,127.59,498.86,127.59Z"/><path class="cls-1" d="M641.48,77.64c-4.75-14.38-16.35-24.35-33.86-28.76a93.19,93.19,0,0,0-22.71-2.58c-37.84,0-59.18,17.71-59.18,47.38,0,29.37,21.34,46.32,59.18,46.32s59-17,59-46.32A50.68,50.68,0,0,0,641.48,77.64Zm-42.87,50c-9.38,0-13.77-6.36-13.77-18.47,0-12.41,4.39-19.07,13.77-19.07s13.6,6.66,13.6,19.07C612.21,121.23,607.85,127.59,598.61,127.59Z"/><path class="cls-1" d="M741.2,109.12l-4.08,26.49C728.64,138.49,717,140,706.69,140c-27.85,0-48-11.35-48-36.93V77.64h-5.94c-3.12-12.9-14.32-23.5-27.2-28.76h33.9V34L702.6,19.81V48.88h34.21V77.64H702.6v11.8c0,15.44,9.69,21.19,24.83,21.19A62.66,62.66,0,0,0,741.2,109.12Z"/><ellipse class="cls-1" cx="503.77" cy="113.96" rx="4.01" ry="8.14"/><ellipse class="cls-1" cx="603.51" cy="113.96" rx="4.01" ry="8.14"/></svg>